<?xml version="1.0" encoding="UTF-8"?>
<svg xmlns="http://www.w3.org/2000/svg" xmlns:xlink="http://www.w3.org/1999/xlink" width="525pt" height="525pt" viewBox="0 0 525 525" version="1.1">
<g id="surface21">
<rect x="0" y="0" width="525" height="525" style="fill:rgb(100%,100%,100%);fill-opacity:1;stroke:none;"/>
<path style="fill:none;stroke-width:3.200935;stroke-linecap:butt;stroke-linejoin:round;stroke:rgb(100%,64.705882%,0%);stroke-opacity:1;stroke-miterlimit:10;" d="M 501.136719 262.5 L 500.957031 263.507813 L 500.417969 264.484375 L 499.523438 265.398438 L 498.285156 266.226563 L 496.707031 266.9375 L 494.804688 267.5 L 492.589844 267.890625 L 490.082031 268.085938 L 487.304688 268.058594 L 484.273438 267.792969 L 481.015625 267.265625 L 477.554688 266.464844 L 473.917969 265.371094 L 470.136719 263.972656 L 466.234375 262.265625 L 462.246094 260.238281 L 458.195313 257.890625 L 454.121094 255.21875 L 450.046875 252.226563 L 446.007813 248.917969 L 442.03125 245.304688 L 438.148438 241.394531 L 434.382813 237.199219 L 430.765625 232.734375 L 427.320313 228.019531 L 424.070313 223.074219 L 421.035156 217.921875 L 418.234375 212.589844 L 415.6875 207.097656 L 413.40625 201.472656 L 411.40625 195.75 L 409.691406 189.953125 L 408.273438 184.117188 L 407.152344 178.269531 L 406.332031 172.441406 L 405.808594 166.664063 L 405.578125 160.96875 L 405.632813 155.386719 L 405.964844 149.941406 L 406.554688 144.667969 L 407.394531 139.59375 L 408.464844 134.734375 L 409.742188 130.121094 L 411.207031 125.773438 L 412.835938 121.710938 L 414.601563 117.953125 L 416.480469 114.507813 L 418.441406 111.390625 L 420.457031 108.613281 L 422.496094 106.175781 L 424.53125 104.089844 L 426.527344 102.347656 L 428.460938 100.953125 L 430.296875 99.902344 L 432.007813 99.183594 L 433.566406 98.785156 L 434.941406 98.699219 L 436.113281 98.90625 L 437.050781 99.390625 L 437.738281 100.132813 L 438.148438 101.105469 L 438.269531 102.292969 L 438.078125 103.664063 L 437.566406 105.191406 L 436.726563 106.847656 L 435.539063 108.605469 L 434.007813 110.433594 L 432.128906 112.300781 L 429.902344 114.179688 L 427.328125 116.035156 L 424.414063 117.84375 L 421.167969 119.570313 L 417.601563 121.191406 L 413.730469 122.679688 L 409.566406 124.003906 L 405.132813 125.144531 L 400.449219 126.074219 L 395.539063 126.78125 L 390.425781 127.242188 L 385.140625 127.4375 L 379.703125 127.363281 L 374.144531 127 L 368.5 126.34375 L 362.792969 125.390625 L 357.058594 124.132813 L 351.324219 122.574219 L 345.625 120.722656 L 339.992188 118.574219 L 334.449219 116.144531 L 329.027344 113.445313 L 323.753906 110.488281 L 318.65625 107.289063 L 313.761719 103.871094 L 309.085938 100.25 L 304.65625 96.449219 L 300.488281 92.5 L 296.597656 88.421875 L 292.996094 84.246094 L 289.699219 80 L 286.710938 75.714844 L 284.039063 71.417969 L 281.6875 67.144531 L 279.65625 62.921875 L 277.9375 58.78125 L 276.53125 54.75 L 275.425781 50.863281 L 274.609375 47.144531 L 274.066406 43.625 L 273.789063 40.328125 L 273.75 37.277344 L 273.933594 34.496094 L 274.3125 32.007813 L 274.867188 29.824219 L 275.570313 27.960938 L 276.390625 26.4375 L 277.308594 25.257813 L 278.285156 24.433594 L 279.296875 23.96875 L 280.3125 23.863281 L 281.300781 24.117188 L 282.230469 24.730469 L 283.078125 25.691406 L 283.804688 26.992188 L 284.394531 28.625 L 284.8125 30.570313 L 285.035156 32.8125 L 285.042969 35.332031 L 284.808594 38.109375 L 284.316406 41.121094 L 283.550781 44.339844 L 282.492188 47.738281 L 281.132813 51.292969 L 279.460938 54.972656 L 277.46875 58.746094 L 275.15625 62.582031 L 272.519531 66.453125 L 269.558594 70.332031 L 266.277344 74.179688 L 262.6875 77.972656 L 258.796875 81.675781 L 254.613281 85.269531 L 250.160156 88.71875 L 245.449219 92.003906 L 240.503906 95.09375 L 235.34375 97.976563 L 229.996094 100.628906 L 224.480469 103.027344 L 218.828125 105.164063 L 213.066406 107.023438 L 207.222656 108.597656 L 201.332031 109.878906 L 195.417969 110.859375 L 189.519531 111.542969 L 183.664063 111.929688 L 177.878906 112.019531 L 172.199219 111.824219 L 166.648438 111.351563 L 161.261719 110.617188 L 156.0625 109.628906 L 151.074219 108.410156 L 146.324219 106.980469 L 141.832031 105.359375 L 137.617188 103.566406 L 133.699219 101.636719 L 130.089844 99.589844 L 126.804688 97.453125 L 123.851563 95.257813 L 121.238281 93.035156 L 118.96875 90.8125 L 117.046875 88.625 L 115.464844 86.496094 L 114.222656 84.460938 L 113.3125 82.546875 L 112.726563 80.78125 L 112.445313 79.195313 L 112.464844 77.8125 L 112.757813 76.65625 L 113.308594 75.753906 L 114.097656 75.125 L 115.097656 74.785156 L 116.285156 74.753906 L 117.636719 75.046875 L 119.117188 75.671875 L 120.699219 76.636719 L 122.359375 77.953125 L 124.0625 79.621094 L 125.78125 81.640625 L 127.480469 84.007813 L 129.136719 86.722656 L 130.71875 89.769531 L 132.191406 93.144531 L 133.539063 96.832031 L 134.726563 100.8125 L 135.734375 105.074219 L 136.535156 109.59375 L 137.113281 114.34375 L 137.449219 119.308594 L 137.523438 124.453125 L 137.324219 129.757813 L 136.84375 135.1875 L 136.066406 140.71875 L 134.992188 146.3125 L 133.617188 151.949219 L 131.9375 157.589844 L 129.960938 163.203125 L 127.691406 168.761719 L 125.136719 174.238281 L 122.304688 179.597656 L 119.214844 184.820313 L 115.878906 189.867188 L 112.316406 194.726563 L 108.550781 199.367188 L 104.601563 203.769531 L 100.492188 207.917969 L 96.25 211.789063 L 91.90625 215.375 L 87.484375 218.664063 L 83.015625 221.644531 L 78.527344 224.308594 L 74.058594 226.660156 L 69.628906 228.691406 L 65.277344 230.410156 L 61.03125 231.816406 L 56.917969 232.921875 L 52.96875 233.738281 L 49.210938 234.277344 L 45.671875 234.554688 L 42.371094 234.589844 L 39.335938 234.398438 L 36.582031 234.007813 L 34.132813 233.441406 L 32.003906 232.722656 L 30.207031 231.882813 L 28.75 230.945313 L 27.648438 229.941406 L 26.898438 228.902344 L 26.511719 227.855469 L 26.484375 226.832031 L 26.8125 225.863281 L 27.488281 224.980469 L 28.507813 224.207031 L 29.859375 223.574219 L 31.523438 223.109375 L 33.488281 222.835938 L 35.738281 222.78125 L 38.242188 222.960938 L 40.988281 223.402344 L 43.945313 224.117188 L 47.089844 225.125 L 50.390625 226.4375 L 53.824219 228.0625 L 57.355469 230.007813 L 60.960938 232.28125 L 64.605469 234.882813 L 68.257813 237.808594 L 71.890625 241.058594 L 75.476563 244.628906 L 78.976563 248.5 L 82.371094 252.667969 L 85.632813 257.117188 L 88.730469 261.828125 L 91.644531 266.785156 L 94.351563 271.960938 L 96.832031 277.335938 L 99.066406 282.882813 L 101.042969 288.578125 L 102.742188 294.386719 L 104.164063 300.289063 L 105.292969 306.25 L 106.125 312.234375 L 106.660156 318.21875 L 106.898438 324.167969 L 106.84375 330.054688 L 106.5 335.84375 L 105.882813 341.511719 L 105 347.023438 L 103.863281 352.355469 L 102.496094 357.480469 L 100.910156 362.378906 L 99.132813 367.019531 L 97.183594 371.390625 L 95.085938 375.472656 L 92.871094 379.246094 L 90.566406 382.699219 L 88.199219 385.824219 L 85.796875 388.613281 L 83.390625 391.058594 L 81.011719 393.164063 L 78.6875 394.925781 L 76.453125 396.347656 L 74.335938 397.4375 L 72.363281 398.203125 L 70.566406 398.660156 L 68.964844 398.816406 L 67.59375 398.699219 L 66.464844 398.316406 L 65.609375 397.699219 L 65.042969 396.863281 L 64.78125 395.835938 L 64.835938 394.648438 L 65.226563 393.320313 L 65.960938 391.886719 L 67.039063 390.375 L 68.472656 388.8125 L 70.257813 387.234375 L 72.394531 385.667969 L 74.878906 384.144531 L 77.699219 382.691406 L 80.847656 381.339844 L 84.316406 380.117188 L 88.082031 379.046875 L 92.132813 378.15625 L 96.445313 377.46875 L 100.996094 377.003906 L 105.765625 376.78125 L 110.726563 376.816406 L 115.851563 377.125 L 121.109375 377.722656 L 126.476563 378.609375 L 131.917969 379.796875 L 137.402344 381.292969 L 142.902344 383.089844 L 148.386719 385.1875 L 153.824219 387.582031 L 159.183594 390.269531 L 164.4375 393.234375 L 169.558594 396.464844 L 174.515625 399.945313 L 179.289063 403.65625 L 183.855469 407.582031 L 188.1875 411.695313 L 192.269531 415.972656 L 196.089844 420.390625 L 199.625 424.921875 L 202.863281 429.535156 L 205.804688 434.203125 L 208.433594 438.894531 L 210.75 443.578125 L 212.753906 448.222656 L 214.441406 452.804688 L 215.824219 457.28125 L 216.910156 461.632813 L 217.703125 465.828125 L 218.21875 469.839844 L 218.472656 473.636719 L 218.484375 477.199219 L 218.269531 480.5 L 217.855469 483.523438 L 217.261719 486.242188 L 216.515625 488.648438 L 215.640625 490.726563 L 214.671875 492.460938 L 213.628906 493.847656 L 212.550781 494.875 L 211.460938 495.542969 L 210.390625 495.855469 L 209.371094 495.804688 L 208.433594 495.40625 L 207.601563 494.660156 L 206.910156 493.585938 L 206.382813 492.1875 L 206.042969 490.488281 L 205.917969 488.5 L 206.03125 486.25 L 206.398438 483.757813 L 207.042969 481.046875 L 207.976563 478.144531 L 209.210938 475.074219 L 210.761719 471.871094 L 212.636719 468.5625 L 214.835938 465.171875 L 217.367188 461.738281 L 220.222656 458.289063 L 223.410156 454.855469 L 226.914063 451.464844 L 230.726563 448.148438 L 234.84375 444.9375 L 239.242188 441.855469 L 243.910156 438.925781 L 248.824219 436.179688 L 253.972656 433.636719 L 259.320313 431.316406 L 264.851563 429.238281 L 270.535156 427.417969 L 276.347656 425.871094 L 282.253906 424.601563 L 288.226563 423.625 L 294.238281 422.941406 L 300.253906 422.554688 L 306.246094 422.46875 L 312.183594 422.671875 L 318.03125 423.167969 L 323.765625 423.941406 L 329.351563 424.984375 L 334.769531 426.28125 L 339.988281 427.8125 L 344.984375 429.566406 L 349.734375 431.515625 L 354.21875 433.640625 L 358.417969 435.917969 L 362.320313 438.316406 L 365.90625 440.8125 L 369.171875 443.378906 L 372.101563 445.980469 L 374.695313 448.589844 L 376.949219 451.179688 L 378.863281 453.714844 L 380.441406 456.167969 L 381.6875 458.507813 L 382.613281 460.707031 L 383.226563 462.738281 L 383.546875 464.570313 L 383.585938 466.179688 L 383.363281 467.546875 L 382.902344 468.644531 L 382.222656 469.453125 L 381.347656 469.957031 L 380.308594 470.144531 L 379.128906 469.996094 L 377.839844 469.507813 L 376.46875 468.667969 L 375.042969 467.476563 L 373.597656 465.925781 L 372.164063 464.023438 L 370.765625 461.769531 L 369.433594 459.171875 L 368.199219 456.242188 L 367.09375 452.992188 L 366.132813 449.433594 L 365.351563 445.585938 L 364.769531 441.472656 L 364.40625 437.109375 L 364.285156 432.519531 L 364.417969 427.734375 L 364.828125 422.777344 L 365.515625 417.679688 L 366.5 412.464844 L 367.785156 407.164063 L 369.375 401.8125 L 371.269531 396.441406 L 373.46875 391.074219 L 375.964844 385.75 L 378.753906 380.492188 L 381.824219 375.332031 L 385.167969 370.300781 L 388.761719 365.421875 L 392.59375 360.722656 L 396.644531 356.226563 L 400.886719 351.957031 L 405.300781 347.933594 L 409.863281 344.167969 L 414.539063 340.683594 L 419.308594 337.484375 L 424.140625 334.589844 L 429 332 L 433.863281 329.71875 L 438.695313 327.753906 L 443.464844 326.097656 L 448.144531 324.75 L 452.703125 323.703125 L 457.113281 322.945313 L 461.34375 322.464844 L 465.371094 322.25 L 469.164063 322.277344 L 472.707031 322.535156 L 475.976563 322.996094 L 478.949219 323.636719 L 481.613281 324.433594 L 483.953125 325.359375 L 485.949219 326.386719 L 487.605469 327.488281 L 488.902344 328.632813 L 489.847656 329.789063 L 490.429688 330.929688 L 490.65625 332.019531 L 490.535156 333.035156 L 490.066406 333.945313 L 489.261719 334.71875 L 488.140625 335.332031 L 486.710938 335.753906 L 484.996094 335.964844 L 483.011719 335.941406 L 480.78125 335.660156 L 478.328125 335.105469 L 475.683594 334.261719 L 472.863281 333.113281 L 469.90625 331.644531 L 466.835938 329.855469 L 463.683594 327.734375 L 460.476563 325.28125 L 457.25 322.496094 L 454.035156 319.378906 L 450.855469 315.941406 L 447.746094 312.183594 L 444.734375 308.121094 L 441.847656 303.765625 L 439.109375 299.136719 L 436.546875 294.25 L 434.183594 289.128906 L 432.039063 283.792969 L 430.132813 278.273438 L 428.480469 272.585938 L 427.09375 266.765625 L 425.988281 260.839844 L 425.167969 254.839844 L 424.640625 248.792969 L 424.410156 242.730469 L 424.476563 236.6875 L 424.835938 230.691406 L 425.484375 224.769531 L 426.414063 218.957031 L 427.613281 213.285156 L 429.066406 207.773438 L 430.761719 202.453125 L 432.675781 197.351563 L 434.792969 192.488281 L 437.085938 187.882813 L 439.535156 183.558594 L 442.113281 179.527344 L 444.789063 175.804688 L 447.539063 172.40625 L 450.335938 169.335938 L 453.140625 166.597656 L 455.933594 164.199219 L 458.675781 162.140625 L 461.339844 160.414063 L 463.898438 159.019531 L 466.320313 157.949219 L 468.574219 157.1875 L 470.640625 156.726563 L 472.484375 156.542969 L 474.089844 156.625 L 475.429688 156.949219 L 476.488281 157.492188 L 477.242188 158.234375 L 477.679688 159.144531 L 477.785156 160.199219 L 477.550781 161.367188 L 476.96875 162.617188 L 476.03125 163.925781 L 474.738281 165.261719 L 473.089844 166.589844 L 471.089844 167.886719 L 468.746094 169.113281 L 466.0625 170.25 L 463.058594 171.265625 L 459.742188 172.132813 L 456.132813 172.824219 L 452.246094 173.316406 L 448.109375 173.59375 L 443.746094 173.628906 L 439.171875 173.40625 L 434.425781 172.914063 L 429.523438 172.136719 L 424.503906 171.066406 L 419.390625 169.691406 L 414.21875 168.011719 L 409.015625 166.023438 L 403.8125 163.726563 L 398.640625 161.128906 L 393.53125 158.234375 L 388.511719 155.050781 L 383.609375 151.59375 L 378.855469 147.878906 L 374.273438 143.917969 L 369.886719 139.734375 L 365.71875 135.351563 L 361.789063 130.789063 L 358.113281 126.074219 L 354.710938 121.234375 L 351.59375 116.292969 L 348.773438 111.285156 L 346.25 106.238281 L 344.039063 101.1875 L 342.136719 96.152344 L 340.542969 91.175781 L 339.253906 86.28125 L 338.261719 81.5 L 337.5625 76.863281 L 337.136719 72.398438 L 336.976563 68.132813 L 337.0625 64.09375 L 337.375 60.296875 L 337.894531 56.773438 L 338.59375 53.542969 L 339.453125 50.617188 L 340.445313 48.011719 L 341.542969 45.746094 L 342.714844 43.820313 L 343.933594 42.25 L 345.167969 41.039063 L 346.386719 40.183594 L 347.566406 39.683594 L 348.667969 39.535156 L 349.667969 39.738281 L 350.539063 40.273438 L 351.25 41.132813 L 351.773438 42.300781 L 352.085938 43.761719 L 352.167969 45.492188 L 351.996094 47.476563 L 351.550781 49.683594 L 350.816406 52.09375 L 349.777344 54.679688 L 348.421875 57.410156 L 346.746094 60.257813 L 344.734375 63.195313 L 342.390625 66.1875 L 339.710938 69.210938 L 336.699219 72.226563 L 333.359375 75.210938 L 329.703125 78.132813 L 325.730469 80.960938 L 321.46875 83.667969 L 316.921875 86.230469 L 312.113281 88.621094 L 307.0625 90.816406 L 301.792969 92.796875 L 296.328125 94.542969 L 290.691406 96.039063 L 284.914063 97.265625 L 279.023438 98.21875 L 273.046875 98.882813 L 267.015625 99.253906 L 260.964844 99.328125 L 254.917969 99.105469 L 248.914063 98.585938 L 242.976563 97.777344 L 237.136719 96.6875 L 231.425781 95.324219 L 225.871094 93.703125 L 220.5 91.835938 L 215.335938 89.746094 L 210.40625 87.449219 L 205.726563 84.96875 L 201.320313 82.332031 L 197.199219 79.558594 L 193.382813 76.683594 L 189.882813 73.726563 L 186.707031 70.722656 L 183.863281 67.699219 L 181.351563 64.6875 L 179.171875 61.71875 L 177.328125 58.820313 L 175.8125 56.027344 L 174.617188 53.367188 L 173.734375 50.863281 L 173.144531 48.550781 L 172.839844 46.453125 L 172.796875 44.59375 L 172.996094 42.996094 L 173.417969 41.679688 L 174.039063 40.664063 L 174.832031 39.964844 L 175.769531 39.59375 L 176.828125 39.566406 L 177.972656 39.886719 L 179.171875 40.566406 L 180.40625 41.597656 L 181.636719 42.992188 L 182.835938 44.738281 L 183.972656 46.835938 L 185.019531 49.273438 L 185.949219 52.039063 L 186.734375 55.121094 L 187.347656 58.5 L 187.765625 62.164063 L 187.964844 66.082031 L 187.929688 70.238281 L 187.640625 74.609375 L 187.078125 79.164063 L 186.234375 83.875 L 185.09375 88.714844 L 183.652344 93.65625 L 181.90625 98.664063 L 179.847656 103.710938 L 177.480469 108.765625 L 174.808594 113.796875 L 171.839844 118.773438 L 168.578125 123.667969 L 165.039063 128.449219 L 161.234375 133.089844 L 157.183594 137.566406 L 152.902344 141.855469 L 148.414063 145.925781 L 143.742188 149.769531 L 138.910156 153.355469 L 133.949219 156.679688 L 128.878906 159.71875 L 123.734375 162.464844 L 118.542969 164.914063 L 113.335938 167.054688 L 108.144531 168.890625 L 102.996094 170.417969 L 97.925781 171.640625 L 92.964844 172.5625 L 88.136719 173.195313 L 83.472656 173.550781 L 79 173.640625 L 74.746094 173.484375 L 70.734375 173.097656 L 66.984375 172.5 L 63.519531 171.71875 L 60.355469 170.773438 L 57.507813 169.695313 L 54.996094 168.511719 L 52.820313 167.246094 L 50.996094 165.929688 L 49.523438 164.59375 L 48.410156 163.269531 L 47.652344 161.984375 L 47.242188 160.769531 L 47.179688 159.65625 L 47.453125 158.667969 L 48.050781 157.839844 L 48.960938 157.195313 L 50.160156 156.757813 L 51.636719 156.550781 L 53.363281 156.601563 L 55.324219 156.921875 L 57.484375 157.53125 L 59.828125 158.445313 L 62.320313 159.675781 L 64.9375 161.234375 L 67.644531 163.128906 L 70.414063 165.355469 L 73.214844 167.921875 L 76.019531 170.828125 L 78.796875 174.066406 L 81.515625 177.628906 L 84.144531 181.503906 L 86.660156 185.683594 L 89.035156 190.152344 L 91.246094 194.886719 L 93.261719 199.875 L 95.070313 205.089844 L 96.644531 210.507813 L 97.972656 216.101563 L 99.039063 221.847656 L 99.828125 227.71875 L 100.335938 233.679688 L 100.546875 239.703125 L 100.464844 245.761719 L 100.089844 251.820313 L 99.414063 257.847656 L 98.449219 263.816406 L 97.203125 269.691406 L 95.679688 275.449219 L 93.898438 281.054688 L 91.871094 286.488281 L 89.613281 291.71875 L 87.148438 296.726563 L 84.496094 301.484375 L 81.679688 305.980469 L 78.726563 310.1875 L 75.664063 314.101563 L 72.515625 317.699219 L 69.316406 320.980469 L 66.089844 323.929688 L 62.871094 326.550781 L 59.6875 328.835938 L 56.574219 330.792969 L 53.554688 332.417969 L 50.664063 333.726563 L 47.925781 334.722656 L 45.371094 335.421875 L 43.027344 335.835938 L 40.917969 335.984375 L 39.066406 335.890625 L 37.492188 335.570313 L 36.214844 335.046875 L 35.25 334.351563 L 34.613281 333.507813 L 34.316406 332.539063 L 34.367188 331.484375 L 34.773438 330.363281 L 35.535156 329.210938 L 36.65625 328.054688 L 38.132813 326.929688 L 39.960938 325.863281 L 42.132813 324.882813 L 44.632813 324.015625 L 47.453125 323.292969 L 50.578125 322.738281 L 53.984375 322.378906 L 57.65625 322.234375 L 61.570313 322.324219 L 65.703125 322.671875 L 70.027344 323.289063 L 74.511719 324.191406 L 79.136719 325.386719 L 83.863281 326.886719 L 88.671875 328.699219 L 93.519531 330.820313 L 98.386719 333.253906 L 103.234375 336 L 108.039063 339.046875 L 112.765625 342.390625 L 117.390625 346.015625 L 121.882813 349.914063 L 126.214844 354.0625 L 130.363281 358.449219 L 134.304688 363.050781 L 138.019531 367.839844 L 141.492188 372.800781 L 144.699219 377.898438 L 147.632813 383.109375 L 150.277344 388.40625 L 152.625 393.753906 L 154.671875 399.128906 L 156.414063 404.496094 L 157.847656 409.824219 L 158.984375 415.082031 L 159.820313 420.246094 L 160.367188 425.277344 L 160.636719 430.152344 L 160.640625 434.839844 L 160.394531 439.320313 L 159.921875 443.5625 L 159.234375 447.546875 L 158.363281 451.25 L 157.324219 454.65625 L 156.152344 457.75 L 154.867188 460.515625 L 153.5 462.941406 L 152.078125 465.019531 L 150.632813 466.746094 L 149.195313 468.117188 L 147.792969 469.132813 L 146.457031 469.796875 L 145.21875 470.113281 L 144.109375 470.089844 L 143.148438 469.746094 L 142.367188 469.085938 L 141.792969 468.128906 L 141.449219 466.894531 L 141.355469 465.402344 L 141.53125 463.679688 L 141.996094 461.746094 L 142.765625 459.628906 L 143.851563 457.355469 L 145.261719 454.953125 L 147.007813 452.457031 L 149.089844 449.890625 L 151.515625 447.285156 L 154.277344 444.675781 L 157.375 442.089844 L 160.800781 439.554688 L 164.546875 437.101563 L 168.601563 434.761719 L 172.945313 432.558594 L 177.566406 430.519531 L 182.441406 428.664063 L 187.550781 427.019531 L 192.871094 425.601563 L 198.378906 424.429688 L 204.042969 423.519531 L 209.835938 422.886719 L 215.730469 422.535156 L 221.699219 422.472656 L 227.707031 422.710938 L 233.722656 423.246094 L 239.71875 424.074219 L 245.664063 425.199219 L 251.527344 426.609375 L 257.277344 428.296875 L 262.890625 430.246094 L 268.332031 432.449219 L 273.582031 434.882813 L 278.617188 437.53125 L 283.414063 440.371094 L 287.949219 443.378906 L 292.207031 446.527344 L 296.171875 449.796875 L 299.832031 453.152344 L 303.179688 456.570313 L 306.199219 460.015625 L 308.894531 463.460938 L 311.261719 466.875 L 313.296875 470.226563 L 315.007813 473.488281 L 316.398438 476.628906 L 317.484375 479.617188 L 318.269531 482.429688 L 318.773438 485.035156 L 319.011719 487.410156 L 319 489.527344 L 318.769531 491.375 L 318.332031 492.925781 L 317.71875 494.164063 L 316.953125 495.074219 L 316.066406 495.648438 L 315.082031 495.875 L 314.035156 495.742188 L 312.953125 495.253906 L 311.863281 494.40625 L 310.796875 493.199219 L 309.789063 491.636719 L 308.863281 489.730469 L 308.050781 487.488281 L 307.375 484.921875 L 306.867188 482.046875 L 306.550781 478.882813 L 306.449219 475.449219 L 306.578125 471.765625 L 306.960938 467.859375 L 307.613281 463.753906 L 308.550781 459.476563 L 309.78125 455.058594 L 311.320313 450.523438 L 313.164063 445.90625 L 315.324219 441.238281 L 317.796875 436.546875 L 320.582031 431.863281 L 323.671875 427.21875 L 327.0625 422.644531 L 330.742188 418.167969 L 334.691406 413.816406 L 338.902344 409.617188 L 343.355469 405.59375 L 348.027344 401.773438 L 352.898438 398.175781 L 357.941406 394.816406 L 363.128906 391.71875 L 368.441406 388.890625 L 373.84375 386.347656 L 379.304688 384.101563 L 384.800781 382.152344 L 390.300781 380.507813 L 395.765625 379.167969 L 401.171875 378.128906 L 406.488281 377.386719 L 411.683594 376.9375 L 416.730469 376.765625 L 421.597656 376.859375 L 426.261719 377.207031 L 430.699219 377.785156 L 434.882813 378.578125 L 438.792969 379.5625 L 442.410156 380.710938 L 445.722656 382 L 448.707031 383.40625 L 451.363281 384.898438 L 453.671875 386.449219 L 455.632813 388.023438 L 457.242188 389.597656 L 458.5 391.136719 L 459.402344 392.613281 L 459.964844 394 L 460.1875 395.261719 L 460.082031 396.371094 L 459.667969 397.304688 L 458.953125 398.035156 L 457.957031 398.539063 L 456.707031 398.792969 L 455.214844 398.773438 L 453.515625 398.46875 L 451.625 397.859375 L 449.578125 396.933594 L 447.398438 395.675781 L 445.113281 394.085938 L 442.761719 392.15625 L 440.363281 389.878906 L 437.957031 387.261719 L 435.566406 384.304688 L 433.226563 381.011719 L 430.960938 377.398438 L 428.804688 373.46875 L 426.777344 369.242188 L 424.910156 364.730469 L 423.226563 359.960938 L 421.746094 354.945313 L 420.492188 349.714844 L 419.480469 344.289063 L 418.726563 338.695313 L 418.246094 332.964844 L 418.046875 327.121094 L 418.140625 321.199219 L 418.527344 315.230469 L 419.210938 309.238281 L 420.191406 303.261719 L 421.464844 297.328125 L 423.027344 291.46875 L 424.867188 285.714844 L 426.976563 280.089844 L 429.335938 274.625 L 431.929688 269.34375 L 434.742188 264.277344 L 437.753906 259.441406 L 440.933594 254.859375 L 444.265625 250.550781 L 447.71875 246.527344 L 451.261719 242.804688 L 454.875 239.394531 L 458.523438 236.304688 L 462.175781 233.539063 L 465.804688 231.105469 L 469.375 228.996094 L 472.863281 227.210938 L 476.234375 225.742188 L 479.460938 224.585938 L 482.511719 223.726563 L 485.367188 223.148438 L 487.996094 222.839844 L 490.375 222.78125 L 492.484375 222.945313 L 494.300781 223.320313 L 495.8125 223.871094 L 496.996094 224.578125 L 497.847656 225.410156 L 498.351563 226.339844 L 498.5 227.339844 L 498.292969 228.378906 L 497.726563 229.425781 L 496.800781 230.449219 L 495.519531 231.421875 L 493.894531 232.316406 L 491.925781 233.097656 L 489.636719 233.746094 L 487.03125 234.226563 L 484.136719 234.519531 L 480.964844 234.601563 L 477.542969 234.449219 L 473.890625 234.042969 L 470.03125 233.367188 L 466 232.40625 L 461.816406 231.152344 L 457.511719 229.589844 L 453.117188 227.714844 L 448.664063 225.523438 L 444.183594 223.015625 L 439.703125 220.191406 L 435.253906 217.058594 L 430.863281 213.621094 L 426.570313 209.886719 L 422.390625 205.875 L 418.359375 201.597656 L 414.496094 197.074219 L 410.828125 192.324219 L 407.378906 187.367188 L 404.164063 182.226563 L 401.203125 176.933594 L 398.507813 171.511719 L 396.09375 165.992188 L 393.96875 160.402344 L 392.140625 154.769531 L 390.613281 149.128906 L 389.386719 143.507813 L 388.464844 137.941406 L 387.835938 132.457031 L 387.496094 127.085938 L 387.4375 121.859375 L 387.644531 116.800781 L 388.101563 111.941406 L 388.792969 107.304688 L 389.703125 102.910156 L 390.800781 98.785156 L 392.070313 94.949219 L 393.484375 91.417969 L 395.015625 88.203125 L 396.636719 85.320313 L 398.320313 82.78125 L 400.03125 80.585938 L 401.746094 78.742188 L 403.433594 77.25 L 405.058594 76.109375 L 406.59375 75.316406 L 408.011719 74.859375 L 409.285156 74.730469 L 410.382813 74.917969 L 411.277344 75.402344 L 411.953125 76.171875 L 412.378906 77.203125 L 412.535156 78.476563 L 412.40625 79.964844 L 411.976563 81.640625 L 411.226563 83.484375 L 410.152344 85.464844 L 408.742188 87.550781 L 406.992188 89.714844 L 404.894531 91.921875 L 402.453125 94.148438 L 399.667969 96.359375 L 396.546875 98.53125 L 393.101563 100.625 L 389.335938 102.617188 L 385.265625 104.480469 L 380.910156 106.191406 L 376.289063 107.722656 L 371.414063 109.046875 L 366.320313 110.152344 L 361.019531 111.015625 L 355.550781 111.621094 L 349.929688 111.957031 L 344.195313 112.011719 L 338.371094 111.773438 L 332.488281 111.238281 L 326.578125 110.40625 L 320.671875 109.273438 L 314.800781 107.847656 L 308.996094 106.128906 L 303.285156 104.128906 L 297.699219 101.859375 L 292.261719 99.332031 L 287.003906 96.5625 L 281.949219 93.574219 L 277.117188 90.382813 L 272.535156 87.011719 L 268.214844 83.488281 L 264.175781 79.835938 L 260.433594 76.085938 L 257 72.261719 L 253.878906 68.394531 L 251.078125 64.515625 L 248.601563 60.65625 L 246.449219 56.847656 L 244.617188 53.117188 L 243.101563 49.496094 L 241.894531 46.015625 L 240.984375 42.703125 L 240.359375 39.585938 L 240 36.691406 L 239.886719 34.039063 L 240.007813 31.65625 L 240.328125 29.558594 L 240.835938 27.769531 L 241.496094 26.300781 L 242.289063 25.167969 L 243.179688 24.378906 L 244.144531 23.945313 L 245.148438 23.871094 L 246.164063 24.15625 L 247.164063 24.800781 L 248.113281 25.804688 L 248.988281 27.15625 L 249.753906 28.851563 L 250.386719 30.875 L 250.855469 33.214844 L 251.140625 35.851563 L 251.214844 38.769531 L 251.058594 41.949219 L 250.652344 45.359375 L 249.976563 48.980469 L 249.015625 52.789063 L 247.757813 56.75 L 246.199219 60.839844 L 244.324219 65.023438 L 242.128906 69.277344 L 239.617188 73.566406 L 236.789063 77.859375 L 233.644531 82.128906 L 230.195313 86.34375 L 226.449219 90.476563 L 222.417969 94.492188 L 218.113281 98.371094 L 213.558594 102.082031 L 208.773438 105.605469 L 203.773438 108.917969 L 198.585938 111.996094 L 193.234375 114.828125 L 187.75 117.394531 L 182.15625 119.683594 L 176.484375 121.683594 L 170.765625 123.390625 L 165.027344 124.796875 L 159.304688 125.902344 L 153.625 126.707031 L 148.019531 127.21875 L 142.519531 127.4375 L 137.152344 127.375 L 131.945313 127.042969 L 126.933594 126.457031 L 122.132813 125.636719 L 117.570313 124.597656 L 113.273438 123.363281 L 109.253906 121.953125 L 105.53125 120.398438 L 102.125 118.71875 L 99.042969 116.949219 L 96.296875 115.113281 L 93.894531 113.238281 L 91.839844 111.363281 L 90.136719 109.511719 L 88.78125 107.714844 L 87.765625 106.003906 L 87.089844 104.410156 L 86.742188 102.957031 L 86.710938 101.675781 L 86.976563 100.589844 L 87.527344 99.730469 L 88.34375 99.117188 L 89.402344 98.765625 L 90.675781 98.703125 L 92.148438 98.945313 L 93.785156 99.5 L 95.5625 100.386719 L 97.449219 101.609375 L 99.417969 103.175781 L 101.4375 105.089844 L 103.480469 107.351563 L 105.511719 109.957031 L 107.503906 112.90625 L 109.425781 116.1875 L 111.253906 119.792969 L 112.953125 123.707031 L 114.503906 127.914063 L 115.878906 132.398438 L 117.054688 137.132813 L 118.007813 142.105469 L 118.726563 147.285156 L 119.191406 152.644531 L 119.382813 158.160156 L 119.296875 163.804688 L 118.921875 169.542969 L 118.25 175.351563 L 117.28125 181.191406 L 116.007813 187.039063 L 114.441406 192.859375 L 112.585938 198.621094 L 110.441406 204.300781 L 108.027344 209.859375 L 105.351563 215.277344 L 102.429688 220.523438 L 99.285156 225.574219 L 95.933594 230.40625 L 92.398438 235 L 88.703125 239.332031 L 84.878906 243.386719 L 80.945313 247.148438 L 76.933594 250.613281 L 72.871094 253.761719 L 68.792969 256.59375 L 64.730469 259.105469 L 60.707031 261.292969 L 56.757813 263.160156 L 52.910156 264.710938 L 49.195313 265.953125 L 45.644531 266.902344 L 42.28125 267.5625 L 39.136719 267.957031 L 36.226563 268.101563 L 33.582031 268.015625 L 31.222656 267.71875 L 29.160156 267.238281 L 27.417969 266.597656 L 26.007813 265.828125 L 24.941406 264.953125 L 24.222656 264 L 23.863281 263.003906 L 23.863281 261.996094 L 24.222656 261 L 24.941406 260.046875 L 26.007813 259.171875 L 27.417969 258.402344 L 29.160156 257.761719 L 31.222656 257.28125 L 33.582031 256.984375 L 36.226563 256.898438 L 39.136719 257.042969 L 42.28125 257.4375 L 45.644531 258.097656 L 49.195313 259.046875 L 52.910156 260.289063 L 56.757813 261.839844 L 60.707031 263.707031 L 64.730469 265.894531 L 68.792969 268.40625 L 72.871094 271.238281 L 76.933594 274.386719 L 80.945313 277.851563 L 84.878906 281.613281 L 88.703125 285.667969 L 92.398438 290 L 95.933594 294.59375 L 99.285156 299.425781 L 102.429688 304.476563 L 105.351563 309.722656 L 108.027344 315.140625 L 110.441406 320.699219 L 112.585938 326.378906 L 114.441406 332.140625 L 116.007813 337.960938 L 117.28125 343.808594 L 118.25 349.648438 L 118.921875 355.457031 L 119.296875 361.195313 L 119.382813 366.839844 L 119.191406 372.355469 L 118.726563 377.714844 L 118.007813 382.894531 L 117.054688 387.867188 L 115.878906 392.601563 L 114.503906 397.085938 L 112.953125 401.292969 L 111.253906 405.207031 L 109.425781 408.8125 L 107.503906 412.09375 L 105.511719 415.042969 L 103.480469 417.648438 L 101.4375 419.910156 L 99.417969 421.824219 L 97.449219 423.390625 L 95.5625 424.613281 L 93.785156 425.5 L 92.148438 426.054688 L 90.675781 426.296875 L 89.402344 426.234375 L 88.34375 425.882813 L 87.527344 425.269531 L 86.976563 424.410156 L 86.710938 423.324219 L 86.742188 422.042969 L 87.089844 420.589844 L 87.765625 418.996094 L 88.78125 417.285156 L 90.136719 415.488281 L 91.839844 413.636719 L 93.894531 411.761719 L 96.296875 409.886719 L 99.042969 408.050781 L 102.125 406.28125 L 105.53125 404.601563 L 109.253906 403.046875 L 113.273438 401.636719 L 117.570313 400.402344 L 122.132813 399.363281 L 126.933594 398.542969 L 131.945313 397.957031 L 137.152344 397.625 L 142.519531 397.5625 L 148.019531 397.78125 L 153.625 398.292969 L 159.304688 399.097656 L 165.027344 400.203125 L 170.765625 401.609375 L 176.484375 403.316406 L 182.15625 405.316406 L 187.75 407.605469 L 193.234375 410.171875 L 198.585938 413.003906 L 203.773438 416.082031 L 208.773438 419.394531 L 213.558594 422.917969 L 218.113281 426.628906 L 222.417969 430.507813 L 226.449219 434.523438 L 230.195313 438.65625 L 233.644531 442.871094 L 236.789063 447.140625 L 239.617188 451.433594 L 242.128906 455.722656 L 244.324219 459.976563 L 246.199219 464.160156 L 247.757813 468.25 L 249.015625 472.210938 L 249.976563 476.019531 L 250.652344 479.640625 L 251.058594 483.050781 L 251.214844 486.230469 L 251.140625 489.148438 L 250.855469 491.785156 L 250.386719 494.125 L 249.753906 496.148438 L 248.988281 497.84375 L 248.113281 499.195313 L 247.164063 500.199219 L 246.164063 500.84375 L 245.148438 501.128906 L 244.144531 501.054688 L 243.179688 500.621094 L 242.289063 499.832031 L 241.496094 498.699219 L 240.835938 497.230469 L 240.328125 495.441406 L 240.007813 493.34375 L 239.886719 490.960938 L 240 488.308594 L 240.359375 485.414063 L 240.984375 482.296875 L 241.894531 478.984375 L 243.101563 475.503906 L 244.617188 471.882813 L 246.449219 468.152344 L 248.601563 464.34375 L 251.078125 460.484375 L 253.878906 456.605469 L 257 452.738281 L 260.433594 448.914063 L 264.175781 445.164063 L 268.214844 441.511719 L 272.535156 437.988281 L 277.117188 434.617188 L 281.949219 431.425781 L 287.003906 428.4375 L 292.261719 425.667969 L 297.699219 423.140625 L 303.285156 420.871094 L 308.996094 418.871094 L 314.800781 417.152344 L 320.671875 415.726563 L 326.578125 414.59375 L 332.488281 413.761719 L 338.371094 413.226563 L 344.195313 412.988281 L 349.929688 413.042969 L 355.550781 413.378906 L 361.019531 413.984375 L 366.320313 414.847656 L 371.414063 415.953125 L 376.289063 417.277344 L 380.910156 418.808594 L 385.265625 420.519531 L 389.335938 422.382813 L 393.101563 424.375 L 396.546875 426.46875 L 399.667969 428.640625 L 402.453125 430.851563 L 404.894531 433.078125 L 406.992188 435.285156 L 408.742188 437.449219 L 410.152344 439.535156 L 411.226563 441.515625 L 411.976563 443.359375 L 412.40625 445.035156 L 412.535156 446.523438 L 412.378906 447.796875 L 411.953125 448.828125 L 411.277344 449.597656 L 410.382813 450.082031 L 409.285156 450.269531 L 408.011719 450.140625 L 406.59375 449.683594 L 405.058594 448.890625 L 403.433594 447.75 L 401.746094 446.257813 L 400.03125 444.414063 L 398.320313 442.21875 L 396.636719 439.679688 L 395.015625 436.796875 L 393.484375 433.582031 L 392.070313 430.050781 L 390.800781 426.214844 L 389.703125 422.089844 L 388.792969 417.695313 L 388.101563 413.058594 L 387.644531 408.199219 L 387.4375 403.140625 L 387.496094 397.914063 L 387.835938 392.542969 L 388.464844 387.058594 L 389.386719 381.492188 L 390.613281 375.871094 L 392.140625 370.230469 L 393.96875 364.597656 L 396.09375 359.007813 L 398.507813 353.488281 L 401.203125 348.066406 L 404.164063 342.773438 L 407.378906 337.632813 L 410.828125 332.675781 L 414.496094 327.925781 L 418.359375 323.402344 L 422.390625 319.125 L 426.570313 315.113281 L 430.863281 311.378906 L 435.253906 307.941406 L 439.703125 304.808594 L 444.183594 301.984375 L 448.664063 299.476563 L 453.117188 297.285156 L 457.511719 295.410156 L 461.816406 293.847656 L 466 292.59375 L 470.03125 291.632813 L 473.890625 290.957031 L 477.542969 290.550781 L 480.964844 290.398438 L 484.136719 290.480469 L 487.03125 290.773438 L 489.636719 291.253906 L 491.925781 291.902344 L 493.894531 292.683594 L 495.519531 293.578125 L 496.800781 294.550781 L 497.726563 295.574219 L 498.292969 296.621094 L 498.5 297.660156 L 498.351563 298.660156 L 497.847656 299.589844 L 496.996094 300.421875 L 495.8125 301.128906 L 494.300781 301.679688 L 492.484375 302.054688 L 490.375 302.21875 L 487.996094 302.160156 L 485.367188 301.851563 L 482.511719 301.273438 L 479.460938 300.414063 L 476.234375 299.257813 L 472.863281 297.789063 L 469.375 296.003906 L 465.804688 293.894531 L 462.175781 291.460938 L 458.523438 288.695313 L 454.875 285.605469 L 451.261719 282.195313 L 447.71875 278.472656 L 444.265625 274.449219 L 440.933594 270.140625 L 437.753906 265.558594 L 434.742188 260.722656 L 431.929688 255.65625 L 429.335938 250.375 L 426.976563 244.910156 L 424.867188 239.285156 L 423.027344 233.53125 L 421.464844 227.671875 L 420.191406 221.738281 L 419.210938 215.761719 L 418.527344 209.769531 L 418.140625 203.800781 L 418.046875 197.878906 L 418.246094 192.035156 L 418.726563 186.304688 L 419.480469 180.710938 L 420.492188 175.285156 L 421.746094 170.054688 L 423.226563 165.039063 L 424.910156 160.269531 L 426.777344 155.757813 L 428.804688 151.53125 L 430.960938 147.601563 L 433.226563 143.988281 L 435.566406 140.695313 L 437.957031 137.738281 L 440.363281 135.121094 L 442.761719 132.84375 L 445.113281 130.914063 L 447.398438 129.324219 L 449.578125 128.066406 L 451.625 127.140625 L 453.515625 126.53125 L 455.214844 126.226563 L 456.707031 126.207031 L 457.957031 126.460938 L 458.953125 126.964844 L 459.667969 127.695313 L 460.082031 128.628906 L 460.1875 129.738281 L 459.964844 131 L 459.402344 132.386719 L 458.5 133.863281 L 457.242188 135.402344 L 455.632813 136.976563 L 453.671875 138.550781 L 451.363281 140.101563 L 448.707031 141.59375 L 445.722656 143 L 442.410156 144.289063 L 438.792969 145.4375 L 434.882813 146.421875 L 430.699219 147.214844 L 426.261719 147.792969 L 421.597656 148.140625 L 416.730469 148.234375 L 411.683594 148.0625 L 406.488281 147.613281 L 401.171875 146.871094 L 395.765625 145.832031 L 390.300781 144.492188 L 384.800781 142.847656 L 379.304688 140.898438 L 373.84375 138.652344 L 368.441406 136.109375 L 363.128906 133.28125 L 357.941406 130.183594 L 352.898438 126.824219 L 348.027344 123.226563 L 343.355469 119.40625 L 338.902344 115.382813 L 334.691406 111.183594 L 330.742188 106.832031 L 327.0625 102.355469 L 323.671875 97.78125 L 320.582031 93.136719 L 317.796875 88.453125 L 315.324219 83.761719 L 313.164063 79.09375 L 311.320313 74.476563 L 309.78125 69.941406 L 308.550781 65.523438 L 307.613281 61.246094 L 306.960938 57.140625 L 306.578125 53.234375 L 306.449219 49.550781 L 306.550781 46.117188 L 306.867188 42.953125 L 307.375 40.078125 L 308.050781 37.511719 L 308.863281 35.269531 L 309.789063 33.363281 L 310.796875 31.800781 L 311.863281 30.59375 L 312.953125 29.746094 L 314.035156 29.257813 L 315.082031 29.125 L 316.066406 29.351563 L 316.953125 29.925781 L 317.71875 30.835938 L 318.332031 32.074219 L 318.769531 33.625 L 319 35.472656 L 319.011719 37.589844 L 318.773438 39.964844 L 318.269531 42.570313 L 317.484375 45.382813 L 316.398438 48.371094 L 315.007813 51.511719 L 313.296875 54.773438 L 311.261719 58.125 L 308.894531 61.539063 L 306.199219 64.984375 L 303.179688 68.429688 L 299.832031 71.847656 L 296.171875 75.203125 L 292.207031 78.472656 L 287.949219 81.621094 L 283.414063 84.628906 L 278.617188 87.46875 L 273.582031 90.117188 L 268.332031 92.550781 L 262.890625 94.753906 L 257.277344 96.703125 L 251.527344 98.390625 L 245.664063 99.800781 L 239.71875 100.925781 L 233.722656 101.753906 L 227.707031 102.289063 L 221.699219 102.527344 L 215.730469 102.464844 L 209.835938 102.113281 L 204.042969 101.480469 L 198.378906 100.570313 L 192.871094 99.398438 L 187.550781 97.980469 L 182.441406 96.335938 L 177.566406 94.480469 L 172.945313 92.441406 L 168.601563 90.238281 L 164.546875 87.898438 L 160.800781 85.445313 L 157.375 82.910156 L 154.277344 80.324219 L 151.515625 77.714844 L 149.089844 75.109375 L 147.007813 72.542969 L 145.261719 70.046875 L 143.851563 67.644531 L 142.765625 65.371094 L 141.996094 63.253906 L 141.53125 61.320313 L 141.355469 59.597656 L 141.449219 58.105469 L 141.792969 56.871094 L 142.367188 55.914063 L 143.148438 55.253906 L 144.109375 54.910156 L 145.21875 54.886719 L 146.457031 55.203125 L 147.792969 55.867188 L 149.195313 56.882813 L 150.632813 58.253906 L 152.078125 59.980469 L 153.5 62.058594 L 154.867188 64.484375 L 156.152344 67.25 L 157.324219 70.34375 L 158.363281 73.75 L 159.234375 77.453125 L 159.921875 81.4375 L 160.394531 85.679688 L 160.640625 90.160156 L 160.636719 94.847656 L 160.367188 99.722656 L 159.820313 104.753906 L 158.984375 109.917969 L 157.847656 115.175781 L 156.414063 120.503906 L 154.671875 125.871094 L 152.625 131.246094 L 150.277344 136.59375 L 147.632813 141.890625 L 144.699219 147.101563 L 141.492188 152.199219 L 138.019531 157.160156 L 134.304688 161.949219 L 130.363281 166.550781 L 126.214844 170.9375 L 121.882813 175.085938 L 117.390625 178.984375 L 112.765625 182.609375 L 108.039063 185.953125 L 103.234375 189 L 98.386719 191.746094 L 93.519531 194.179688 L 88.671875 196.300781 L 83.863281 198.113281 L 79.136719 199.613281 L 74.511719 200.808594 L 70.027344 201.710938 L 65.703125 202.328125 L 61.570313 202.675781 L 57.65625 202.765625 L 53.984375 202.621094 L 50.578125 202.261719 L 47.453125 201.707031 L 44.632813 200.984375 L 42.132813 200.117188 L 39.960938 199.136719 L 38.132813 198.070313 L 36.65625 196.945313 L 35.535156 195.789063 L 34.773438 194.636719 L 34.367188 193.515625 L 34.316406 192.460938 L 34.613281 191.492188 L 35.25 190.648438 L 36.214844 189.953125 L 37.492188 189.429688 L 39.066406 189.109375 L 40.917969 189.015625 L 43.027344 189.164063 L 45.371094 189.578125 L 47.925781 190.277344 L 50.664063 191.273438 L 53.554688 192.582031 L 56.574219 194.207031 L 59.6875 196.164063 L 62.871094 198.449219 L 66.089844 201.070313 L 69.316406 204.019531 L 72.515625 207.300781 L 75.664063 210.898438 L 78.726563 214.8125 L 81.679688 219.019531 L 84.496094 223.515625 L 87.148438 228.273438 L 89.613281 233.28125 L 91.871094 238.511719 L 93.898438 243.945313 L 95.679688 249.550781 L 97.203125 255.308594 L 98.449219 261.183594 L 99.414063 267.152344 L 100.089844 273.179688 L 100.464844 279.238281 L 100.546875 285.296875 L 100.335938 291.320313 L 99.828125 297.28125 L 99.039063 303.152344 L 97.972656 308.898438 L 96.644531 314.492188 L 95.070313 319.910156 L 93.261719 325.125 L 91.246094 330.113281 L 89.035156 334.847656 L 86.660156 339.316406 L 84.144531 343.496094 L 81.515625 347.371094 L 78.796875 350.933594 L 76.019531 354.171875 L 73.214844 357.078125 L 70.414063 359.644531 L 67.644531 361.871094 L 64.9375 363.765625 L 62.320313 365.324219 L 59.828125 366.554688 L 57.484375 367.46875 L 55.324219 368.078125 L 53.363281 368.398438 L 51.636719 368.449219 L 50.160156 368.242188 L 48.960938 367.804688 L 48.050781 367.160156 L 47.453125 366.332031 L 47.179688 365.34375 L 47.242188 364.230469 L 47.652344 363.015625 L 48.410156 361.730469 L 49.523438 360.40625 L 50.996094 359.070313 L 52.820313 357.753906 L 54.996094 356.488281 L 57.507813 355.304688 L 60.355469 354.226563 L 63.519531 353.28125 L 66.984375 352.5 L 70.734375 351.902344 L 74.746094 351.515625 L 79 351.359375 L 83.472656 351.449219 L 88.136719 351.804688 L 92.964844 352.4375 L 97.925781 353.359375 L 102.996094 354.582031 L 108.144531 356.109375 L 113.335938 357.945313 L 118.542969 360.085938 L 123.734375 362.535156 L 128.878906 365.28125 L 133.949219 368.320313 L 138.910156 371.644531 L 143.742188 375.230469 L 148.414063 379.074219 L 152.902344 383.144531 L 157.183594 387.433594 L 161.234375 391.910156 L 165.039063 396.550781 L 168.578125 401.332031 L 171.839844 406.226563 L 174.808594 411.203125 L 177.480469 416.234375 L 179.847656 421.289063 L 181.90625 426.335938 L 183.652344 431.34375 L 185.09375 436.285156 L 186.234375 441.125 L 187.078125 445.835938 L 187.640625 450.390625 L 187.929688 454.761719 L 187.964844 458.917969 L 187.765625 462.835938 L 187.347656 466.5 L 186.734375 469.878906 L 185.949219 472.960938 L 185.019531 475.726563 L 183.972656 478.164063 L 182.835938 480.261719 L 181.636719 482.007813 L 180.40625 483.402344 L 179.171875 484.433594 L 177.972656 485.113281 L 176.828125 485.433594 L 175.769531 485.40625 L 174.832031 485.035156 L 174.039063 484.335938 L 173.417969 483.320313 L 172.996094 482.003906 L 172.796875 480.40625 L 172.839844 478.546875 L 173.144531 476.449219 L 173.734375 474.136719 L 174.617188 471.632813 L 175.8125 468.972656 L 177.328125 466.179688 L 179.171875 463.28125 L 181.351563 460.3125 L 183.863281 457.300781 L 186.707031 454.277344 L 189.882813 451.273438 L 193.382813 448.316406 L 197.199219 445.441406 L 201.320313 442.667969 L 205.726563 440.03125 L 210.40625 437.550781 L 215.335938 435.253906 L 220.5 433.164063 L 225.871094 431.296875 L 231.425781 429.675781 L 237.136719 428.3125 L 242.976563 427.222656 L 248.914063 426.414063 L 254.917969 425.894531 L 260.964844 425.671875 L 267.015625 425.746094 L 273.046875 426.117188 L 279.023438 426.78125 L 284.914063 427.734375 L 290.691406 428.960938 L 296.328125 430.457031 L 301.792969 432.203125 L 307.0625 434.183594 L 312.113281 436.378906 L 316.921875 438.769531 L 321.46875 441.332031 L 325.730469 444.039063 L 329.703125 446.867188 L 333.359375 449.789063 L 336.699219 452.773438 L 339.710938 455.789063 L 342.390625 458.8125 L 344.734375 461.804688 L 346.746094 464.742188 L 348.421875 467.589844 L 349.777344 470.320313 L 350.816406 472.90625 L 351.550781 475.316406 L 351.996094 477.523438 L 352.167969 479.507813 L 352.085938 481.238281 L 351.773438 482.699219 L 351.25 483.867188 L 350.539063 484.726563 L 349.667969 485.261719 L 348.667969 485.464844 L 347.566406 485.316406 L 346.386719 484.816406 L 345.167969 483.960938 L 343.933594 482.75 L 342.714844 481.179688 L 341.542969 479.253906 L 340.445313 476.988281 L 339.453125 474.382813 L 338.59375 471.457031 L 337.894531 468.226563 L 337.375 464.703125 L 337.0625 460.90625 L 336.976563 456.867188 L 337.136719 452.601563 L 337.5625 448.136719 L 338.261719 443.5 L 339.253906 438.71875 L 340.542969 433.824219 L 342.136719 428.847656 L 344.039063 423.8125 L 346.25 418.761719 L 348.773438 413.714844 L 351.59375 408.707031 L 354.710938 403.765625 L 358.113281 398.925781 L 361.789063 394.210938 L 365.71875 389.648438 L 369.886719 385.265625 L 374.273438 381.082031 L 378.855469 377.121094 L 383.609375 373.40625 L 388.511719 369.949219 L 393.53125 366.765625 L 398.640625 363.871094 L 403.8125 361.273438 L 409.015625 358.976563 L 414.21875 356.988281 L 419.390625 355.308594 L 424.503906 353.933594 L 429.523438 352.863281 L 434.425781 352.085938 L 439.171875 351.59375 L 443.746094 351.371094 L 448.109375 351.40625 L 452.246094 351.683594 L 456.132813 352.175781 L 459.742188 352.867188 L 463.058594 353.734375 L 466.0625 354.75 L 468.746094 355.886719 L 471.089844 357.113281 L 473.089844 358.410156 L 474.738281 359.738281 L 476.03125 361.074219 L 476.96875 362.382813 L 477.550781 363.632813 L 477.785156 364.800781 L 477.679688 365.855469 L 477.242188 366.765625 L 476.488281 367.507813 L 475.429688 368.050781 L 474.089844 368.375 L 472.484375 368.457031 L 470.640625 368.273438 L 468.574219 367.8125 L 466.320313 367.050781 L 463.898438 365.980469 L 461.339844 364.585938 L 458.675781 362.859375 L 455.933594 360.800781 L 453.140625 358.402344 L 450.335938 355.664063 L 447.539063 352.59375 L 444.789063 349.195313 L 442.113281 345.472656 L 439.535156 341.441406 L 437.085938 337.117188 L 434.792969 332.511719 L 432.675781 327.648438 L 430.761719 322.546875 L 429.066406 317.226563 L 427.613281 311.714844 L 426.414063 306.042969 L 425.484375 300.230469 L 424.835938 294.308594 L 424.476563 288.3125 L 424.410156 282.269531 L 424.640625 276.207031 L 425.167969 270.160156 L 425.988281 264.160156 L 427.09375 258.234375 L 428.480469 252.414063 L 430.132813 246.726563 L 432.039063 241.207031 L 434.183594 235.871094 L 436.546875 230.75 L 439.109375 225.863281 L 441.847656 221.234375 L 444.734375 216.878906 L 447.746094 212.816406 L 450.855469 209.058594 L 454.035156 205.621094 L 457.25 202.503906 L 460.476563 199.71875 L 463.683594 197.265625 L 466.835938 195.144531 L 469.90625 193.355469 L 472.863281 191.886719 L 475.683594 190.738281 L 478.328125 189.894531 L 480.78125 189.339844 L 483.011719 189.058594 L 484.996094 189.035156 L 486.710938 189.246094 L 488.140625 189.667969 L 489.261719 190.28125 L 490.066406 191.054688 L 490.535156 191.964844 L 490.65625 192.980469 L 490.429688 194.070313 L 489.847656 195.210938 L 488.902344 196.367188 L 487.605469 197.511719 L 485.949219 198.613281 L 483.953125 199.640625 L 481.613281 200.566406 L 478.949219 201.363281 L 475.976563 202.003906 L 472.707031 202.464844 L 469.164063 202.722656 L 465.371094 202.75 L 461.34375 202.535156 L 457.113281 202.054688 L 452.703125 201.296875 L 448.144531 200.25 L 443.464844 198.902344 L 438.695313 197.246094 L 433.863281 195.28125 L 429 193 L 424.140625 190.410156 L 419.308594 187.515625 L 414.539063 184.316406 L 409.863281 180.832031 L 405.300781 177.066406 L 400.886719 173.042969 L 396.644531 168.773438 L 392.59375 164.277344 L 388.761719 159.578125 L 385.167969 154.699219 L 381.824219 149.667969 L 378.753906 144.507813 L 375.964844 139.25 L 373.46875 133.925781 L 371.269531 128.558594 L 369.375 123.1875 L 367.785156 117.835938 L 366.5 112.535156 L 365.515625 107.320313 L 364.828125 102.222656 L 364.417969 97.265625 L 364.285156 92.480469 L 364.40625 87.890625 L 364.769531 83.527344 L 365.351563 79.414063 L 366.132813 75.566406 L 367.09375 72.007813 L 368.199219 68.757813 L 369.433594 65.828125 L 370.765625 63.230469 L 372.164063 60.976563 L 373.597656 59.074219 L 375.042969 57.523438 L 376.46875 56.332031 L 377.839844 55.492188 L 379.128906 55.003906 L 380.308594 54.855469 L 381.347656 55.042969 L 382.222656 55.546875 L 382.902344 56.355469 L 383.363281 57.453125 L 383.585938 58.820313 L 383.546875 60.429688 L 383.226563 62.261719 L 382.613281 64.292969 L 381.6875 66.492188 L 380.441406 68.832031 L 378.863281 71.285156 L 376.949219 73.820313 L 374.695313 76.410156 L 372.101563 79.019531 L 369.171875 81.621094 L 365.90625 84.1875 L 362.320313 86.683594 L 358.417969 89.082031 L 354.21875 91.359375 L 349.734375 93.484375 L 344.984375 95.433594 L 339.988281 97.1875 L 334.769531 98.71875 L 329.351563 100.015625 L 323.765625 101.058594 L 318.03125 101.832031 L 312.183594 102.328125 L 306.246094 102.53125 L 300.253906 102.445313 L 294.238281 102.058594 L 288.226563 101.375 L 282.253906 100.398438 L 276.347656 99.128906 L 270.535156 97.582031 L 264.851563 95.761719 L 259.320313 93.683594 L 253.972656 91.363281 L 248.824219 88.820313 L 243.910156 86.074219 L 239.242188 83.144531 L 234.84375 80.0625 L 230.726563 76.851563 L 226.914063 73.535156 L 223.410156 70.144531 L 220.222656 66.710938 L 217.367188 63.261719 L 214.835938 59.828125 L 212.636719 56.4375 L 210.761719 53.128906 L 209.210938 49.925781 L 207.976563 46.855469 L 207.042969 43.953125 L 206.398438 41.242188 L 206.03125 38.75 L 205.917969 36.5 L 206.042969 34.511719 L 206.382813 32.8125 L 206.910156 31.414063 L 207.601563 30.339844 L 208.433594 29.59375 L 209.371094 29.195313 L 210.390625 29.144531 L 211.460938 29.457031 L 212.550781 30.125 L 213.628906 31.152344 L 214.671875 32.539063 L 215.640625 34.273438 L 216.515625 36.351563 L 217.261719 38.757813 L 217.855469 41.476563 L 218.269531 44.5 L 218.484375 47.800781 L 218.472656 51.363281 L 218.21875 55.160156 L 217.703125 59.171875 L 216.910156 63.367188 L 215.824219 67.71875 L 214.441406 72.195313 L 212.753906 76.777344 L 210.75 81.421875 L 208.433594 86.105469 L 205.804688 90.796875 L 202.863281 95.464844 L 199.625 100.078125 L 196.089844 104.609375 L 192.269531 109.027344 L 188.1875 113.304688 L 183.855469 117.417969 L 179.289063 121.34375 L 174.515625 125.054688 L 169.558594 128.535156 L 164.4375 131.765625 L 159.183594 134.730469 L 153.824219 137.417969 L 148.386719 139.8125 L 142.902344 141.910156 L 137.402344 143.707031 L 131.917969 145.203125 L 126.476563 146.390625 L 121.109375 147.277344 L 115.851563 147.875 L 110.726563 148.183594 L 105.765625 148.21875 L 100.996094 147.996094 L 96.445313 147.53125 L 92.132813 146.84375 L 88.082031 145.953125 L 84.316406 144.882813 L 80.847656 143.660156 L 77.699219 142.308594 L 74.878906 140.855469 L 72.394531 139.332031 L 70.257813 137.765625 L 68.472656 136.1875 L 67.039063 134.625 L 65.960938 133.113281 L 65.226563 131.679688 L 64.835938 130.351563 L 64.78125 129.164063 L 65.042969 128.136719 L 65.609375 127.300781 L 66.464844 126.683594 L 67.59375 126.300781 L 68.964844 126.183594 L 70.566406 126.339844 L 72.363281 126.796875 L 74.335938 127.5625 L 76.453125 128.652344 L 78.6875 130.074219 L 81.011719 131.835938 L 83.390625 133.941406 L 85.796875 136.386719 L 88.199219 139.175781 L 90.566406 142.300781 L 92.871094 145.753906 L 95.085938 149.527344 L 97.183594 153.609375 L 99.132813 157.980469 L 100.910156 162.621094 L 102.496094 167.519531 L 103.863281 172.644531 L 105 177.976563 L 105.882813 183.488281 L 106.5 189.15625 L 106.84375 194.945313 L 106.898438 200.832031 L 106.660156 206.78125 L 106.125 212.765625 L 105.292969 218.75 L 104.164063 224.710938 L 102.742188 230.613281 L 101.042969 236.421875 L 99.066406 242.117188 L 96.832031 247.664063 L 94.351563 253.039063 L 91.644531 258.214844 L 88.730469 263.171875 L 85.632813 267.882813 L 82.371094 272.332031 L 78.976563 276.5 L 75.476563 280.371094 L 71.890625 283.941406 L 68.257813 287.191406 L 64.605469 290.117188 L 60.960938 292.71875 L 57.355469 294.992188 L 53.824219 296.9375 L 50.390625 298.5625 L 47.089844 299.875 L 43.945313 300.882813 L 40.988281 301.597656 L 38.242188 302.039063 L 35.738281 302.21875 L 33.488281 302.164063 L 31.523438 301.890625 L 29.859375 301.425781 L 28.507813 300.792969 L 27.488281 300.019531 L 26.8125 299.136719 L 26.484375 298.167969 L 26.511719 297.144531 L 26.898438 296.097656 L 27.648438 295.058594 L 28.75 294.054688 L 30.207031 293.117188 L 32.003906 292.277344 L 34.132813 291.558594 L 36.582031 290.992188 L 39.335938 290.601563 L 42.371094 290.410156 L 45.671875 290.445313 L 49.210938 290.722656 L 52.96875 291.261719 L 56.917969 292.078125 L 61.03125 293.183594 L 65.277344 294.589844 L 69.628906 296.308594 L 74.058594 298.339844 L 78.527344 300.691406 L 83.015625 303.355469 L 87.484375 306.335938 L 91.90625 309.625 L 96.25 313.210938 L 100.492188 317.082031 L 104.601563 321.230469 L 108.550781 325.632813 L 112.316406 330.273438 L 115.878906 335.132813 L 119.214844 340.179688 L 122.304688 345.402344 L 125.136719 350.761719 L 127.691406 356.238281 L 129.960938 361.796875 L 131.9375 367.410156 L 133.617188 373.050781 L 134.992188 378.6875 L 136.066406 384.28125 L 136.84375 389.8125 L 137.324219 395.242188 L 137.523438 400.546875 L 137.449219 405.691406 L 137.113281 410.65625 L 136.535156 415.40625 L 135.734375 419.925781 L 134.726563 424.1875 L 133.539063 428.167969 L 132.191406 431.855469 L 130.71875 435.230469 L 129.136719 438.277344 L 127.480469 440.992188 L 125.78125 443.359375 L 124.0625 445.378906 L 122.359375 447.046875 L 120.699219 448.363281 L 119.117188 449.328125 L 117.636719 449.953125 L 116.285156 450.246094 L 115.097656 450.214844 L 114.097656 449.875 L 113.308594 449.246094 L 112.757813 448.34375 L 112.464844 447.1875 L 112.445313 445.804688 L 112.726563 444.21875 L 113.3125 442.453125 L 114.222656 440.539063 L 115.464844 438.503906 L 117.046875 436.375 L 118.96875 434.1875 L 121.238281 431.964844 L 123.851563 429.742188 L 126.804688 427.546875 L 130.089844 425.410156 L 133.699219 423.363281 L 137.617188 421.433594 L 141.832031 419.640625 L 146.324219 418.019531 L 151.074219 416.589844 L 156.0625 415.371094 L 161.261719 414.382813 L 166.648438 413.648438 L 172.199219 413.175781 L 177.878906 412.980469 L 183.664063 413.070313 L 189.519531 413.457031 L 195.417969 414.140625 L 201.332031 415.121094 L 207.222656 416.402344 L 213.066406 417.976563 L 218.828125 419.835938 L 224.480469 421.972656 L 229.996094 424.371094 L 235.34375 427.023438 L 240.503906 429.90625 L 245.449219 432.996094 L 250.160156 436.28125 L 254.613281 439.730469 L 258.796875 443.324219 L 262.6875 447.027344 L 266.277344 450.820313 L 269.558594 454.667969 L 272.519531 458.546875 L 275.15625 462.417969 L 277.46875 466.253906 L 279.460938 470.027344 L 281.132813 473.707031 L 282.492188 477.261719 L 283.550781 480.660156 L 284.316406 483.878906 L 284.808594 486.890625 L 285.042969 489.667969 L 285.035156 492.1875 L 284.8125 494.429688 L 284.394531 496.375 L 283.804688 498.007813 L 283.078125 499.308594 L 282.230469 500.269531 L 281.300781 500.882813 L 280.3125 501.136719 L 279.296875 501.03125 L 278.285156 500.566406 L 277.308594 499.742188 L 276.390625 498.5625 L 275.570313 497.039063 L 274.867188 495.175781 L 274.3125 492.992188 L 273.933594 490.503906 L 273.75 487.722656 L 273.789063 484.671875 L 274.066406 481.375 L 274.609375 477.855469 L 275.425781 474.136719 L 276.53125 470.25 L 277.9375 466.21875 L 279.65625 462.078125 L 281.6875 457.855469 L 284.039063 453.582031 L 286.710938 449.285156 L 289.699219 445 L 292.996094 440.753906 L 296.597656 436.578125 L 300.488281 432.5 L 304.65625 428.550781 L 309.085938 424.75 L 313.761719 421.128906 L 318.65625 417.710938 L 323.753906 414.511719 L 329.027344 411.554688 L 334.449219 408.855469 L 339.992188 406.425781 L 345.625 404.277344 L 351.324219 402.425781 L 357.058594 400.867188 L 362.792969 399.609375 L 368.5 398.65625 L 374.144531 398 L 379.703125 397.636719 L 385.140625 397.5625 L 390.425781 397.757813 L 395.539063 398.21875 L 400.449219 398.925781 L 405.132813 399.855469 L 409.566406 400.996094 L 413.730469 402.320313 L 417.601563 403.808594 L 421.167969 405.429688 L 424.414063 407.15625 L 427.328125 408.964844 L 429.902344 410.820313 L 432.128906 412.699219 L 434.007813 414.566406 L 435.539063 416.394531 L 436.726563 418.152344 L 437.566406 419.808594 L 438.078125 421.335938 L 438.269531 422.707031 L 438.148438 423.894531 L 437.738281 424.867188 L 437.050781 425.609375 L 436.113281 426.09375 L 434.941406 426.300781 L 433.566406 426.214844 L 432.007813 425.816406 L 430.296875 425.097656 L 428.460938 424.046875 L 426.527344 422.652344 L 424.53125 420.910156 L 422.496094 418.824219 L 420.457031 416.386719 L 418.441406 413.609375 L 416.480469 410.492188 L 414.601563 407.046875 L 412.835938 403.289063 L 411.207031 399.226563 L 409.742188 394.878906 L 408.464844 390.265625 L 407.394531 385.40625 L 406.554688 380.332031 L 405.964844 375.058594 L 405.632813 369.613281 L 405.578125 364.03125 L 405.808594 358.335938 L 406.332031 352.558594 L 407.152344 346.730469 L 408.273438 340.882813 L 409.691406 335.046875 L 411.40625 329.25 L 413.40625 323.527344 L 415.6875 317.902344 L 418.234375 312.410156 L 421.035156 307.078125 L 424.070313 301.925781 L 427.320313 296.980469 L 430.765625 292.265625 L 434.382813 287.800781 L 438.148438 283.605469 L 442.03125 279.695313 L 446.007813 276.082031 L 450.046875 272.773438 L 454.121094 269.78125 L 458.195313 267.109375 L 462.246094 264.761719 L 466.234375 262.734375 L 470.136719 261.027344 L 473.917969 259.628906 L 477.554688 258.535156 L 481.015625 257.734375 L 484.273438 257.207031 L 487.304688 256.941406 L 490.082031 256.914063 L 492.589844 257.109375 L 494.804688 257.5 L 496.707031 258.0625 L 498.285156 258.773438 L 499.523438 259.601563 L 500.417969 260.515625 L 500.957031 261.492188 L 501.136719 262.5 "/>
</g>
</svg>
